<?xml version="1.0" encoding="utf-8"?>
<!-- Generator: Adobe Illustrator 23.0.1, SVG Export Plug-In . SVG Version: 6.00 Build 0)  -->
<svg version="1.1" id="Layer_1" xmlns="http://www.w3.org/2000/svg" xmlns:xlink="http://www.w3.org/1999/xlink" x="0px" y="0px"
	 viewBox="0 0 720 419.04" style="enable-background:new 0 0 720 419.04;" xml:space="preserve">
<style type="text/css">
	.st0{fill:#2E3134;}
	.st1{fill:#1E75BB;}
</style>
<g>
	<g>
		<path class="st0" d="M334.17,151.73c-0.84,3.49-1.53,6.38-2.28,9.49c-14.09,2.72-28.1,5.42-42.11,8.13
			c-0.04-0.14-0.09-0.27-0.13-0.41C304.31,163.27,318.96,157.61,334.17,151.73z"/>
		<path class="st0" d="M325.13,168.31c-1.49,2.49-2.99,4.97-4.55,7.57c-10.22-1.03-20.31-2.05-30.4-3.07
			c-0.01-0.15-0.02-0.3-0.03-0.45c11.55-1.52,23.1-3.05,34.64-4.57C324.9,167.96,325.02,168.13,325.13,168.31z"/>
		<path class="st0" d="M288.28,161.11c6.76-7.46,13.53-14.92,20.39-22.49c2.37,1,4.59,1.93,7.29,3.07
			c-9.36,6.75-18.38,13.24-27.39,19.74C288.48,161.33,288.38,161.22,288.28,161.11z"/>
		<path class="st1" d="M286.47,178.36c-4.74,0.78-8.64,0.65-12.1-1.81c-2.38-1.69-3.03-5.12-1.63-7.96
			c1.66-3.36,4.63-5.27,8.39-7.26C278.43,168.52,279.97,174.02,286.47,178.36z"/>
		<path class="st0" d="M289.21,165.19c5.99-3.7,11.98-7.4,18.09-11.17c1.65,0.99,3.22,1.94,5.37,3.24
			c-8.12,2.9-15.7,5.61-23.28,8.32C289.33,165.44,289.27,165.32,289.21,165.19z"/>
	</g>
	<path class="st1" d="M390.62,271.89c-2.25,3.05-4.36,5.91-6.29,8.53c-14.39-14.19-28.67-28.27-43.24-42.63
		c1.51-1.32,2.97-2.6,4.65-4.08C360.74,246.46,375.59,259.09,390.62,271.89z"/>
	<g>
		<path class="st0" d="M285.09,225.21l3.87-18.36h5.55l-0.84,3.98h7.74c0.53,0,0.91-0.09,1.11-0.26c0.21-0.17,0.36-0.46,0.46-0.88
			l0.62-2.99c0.07-0.24,0.11-0.46,0.11-0.66c0-0.29-0.09-0.49-0.26-0.6c-0.17-0.11-0.46-0.16-0.88-0.16h-13.25l0.98-4.78h15.73
			c1.27,0,2.18,0.23,2.74,0.68c0.56,0.45,0.84,1.14,0.84,2.06c0,0.22-0.02,0.45-0.05,0.69c-0.04,0.24-0.08,0.5-0.13,0.77l-0.99,4.63
			c-0.22,1.02-0.61,1.77-1.17,2.24c-0.56,0.47-1.27,0.76-2.12,0.86c0.71,0.07,1.28,0.26,1.73,0.55c0.45,0.29,0.68,0.77,0.68,1.42
			c0,0.12-0.01,0.24-0.02,0.37c-0.01,0.12-0.03,0.24-0.05,0.37l-1.24,5.88c-0.29,1.41-0.82,2.46-1.59,3.16
			c-0.77,0.69-1.93,1.04-3.48,1.04H285.09z M301.88,215.69c0.02-0.12,0.04-0.23,0.05-0.33c0.01-0.1,0.02-0.18,0.02-0.26
			c0-0.32-0.1-0.52-0.29-0.62c-0.2-0.1-0.5-0.15-0.91-0.15h-7.81l-1.28,6.02h7.81c0.56,0,0.95-0.09,1.19-0.27
			c0.23-0.18,0.41-0.57,0.53-1.15L301.88,215.69z"/>
		<path class="st0" d="M323.73,225.21l-0.26-3.83h-8.9l-1.9,3.83h-5.36l12.85-24.7h7.26l1.9,24.7H323.73z M322.53,205.47
			l-5.98,11.82h6.75L322.53,205.47z"/>
		<path class="st0" d="M331.98,225.21l3.83-18.03h5.47l-2.81,13.21h7.77c1.29,0,2.1-0.79,2.44-2.37l2.19-10.29
			c0.07-0.29,0.11-0.57,0.11-0.84c0-1.02-0.52-1.53-1.57-1.53h-13.25l1.02-4.85h14.27c3.6,0,5.4,1.46,5.4,4.38
			c0,0.61-0.07,1.25-0.22,1.93l-2.59,12.08c-0.44,2.07-1.3,3.64-2.59,4.71c-1.29,1.07-3.03,1.61-5.22,1.61H331.98z"/>
		<path class="st0" d="M377.59,225.21l3.17-15l-9.16,15h-4.34l-2.96-15l-3.17,15h-4.6l5.22-24.7h5.98l3.21,17.19l10.66-17.19h5.77
			l-5.22,24.7H377.59z"/>
		<path class="st0" d="M386.28,225.21l5.22-24.7h5.55l-5.22,24.7H386.28z"/>
		<path class="st0" d="M413.9,225.21l-9.34-16.2l-3.43,16.2h-5.14l5.22-24.7h5.22l8.1,14.74l3.1-14.74h5.18l-5.22,24.7H413.9z"/>
		<path class="st0" d="M432.11,225.21h-5.55l4.2-19.85h-5.98l1.02-4.85h17.55l-1.02,4.85h-6.02L432.11,225.21z"/>
		<path class="st0" d="M445.18,225.21c-1.24,0-2.13-0.22-2.68-0.66s-0.82-1.11-0.82-2.01c0-0.46,0.07-1.01,0.22-1.64l3.39-16.09
			c0.32-1.46,0.85-2.54,1.61-3.25c0.75-0.71,1.92-1.06,3.5-1.06h12.3c1.24,0,2.13,0.22,2.66,0.66c0.54,0.44,0.8,1.12,0.8,2.04
			c0,0.24-0.02,0.5-0.05,0.77c-0.04,0.27-0.08,0.55-0.13,0.84l-3.39,16.09c-0.32,1.46-0.86,2.54-1.62,3.25
			c-0.77,0.71-1.93,1.06-3.49,1.06H445.18z M460.03,206.75c0.02-0.12,0.04-0.23,0.05-0.33c0.01-0.1,0.02-0.18,0.02-0.26
			c0-0.56-0.43-0.84-1.28-0.84h-6.9c-0.49,0-0.83,0.1-1.04,0.29c-0.21,0.2-0.37,0.57-0.49,1.13l-2.63,12.3
			c-0.05,0.24-0.07,0.4-0.07,0.47c0,0.51,0.35,0.77,1.06,0.77h6.9c0.58,0,1-0.1,1.24-0.29c0.24-0.19,0.41-0.51,0.51-0.95
			L460.03,206.75z"/>
		<path class="st0" d="M483.38,225.21l-9.34-16.2l-3.43,16.2h-5.14l5.22-24.7h5.22l8.1,14.74l3.1-14.74h5.18l-5.22,24.7H483.38z"/>
	</g>
	<g>
		<path class="st0" d="M383.85,236.41c0,1.12-0.54,2.2-1.89,2.8c1.7,0.52,2.33,2.33,2.33,3.24c0,3.24-2.43,4.28-5.44,4.28
			c-2.3,0-4.59,0-6.89,0V232.2c2.28,0,4.59,0,6.89,0C381.72,232.2,383.85,233.48,383.85,236.41z M374.66,238.03h4.19
			c1.72,0,2.28-0.73,2.28-1.56c0-0.66-0.54-1.79-2.28-1.79h-4.19V238.03z M374.66,244.18h4.19c1.12,0,2.72-0.37,2.72-1.74
			c0-1.31-1.6-1.99-2.72-1.99h-4.19V244.18z"/>
		<path class="st0" d="M418.24,246.73h-10.88c0-4.84,0-9.7,0-14.54h10.88v2.66h-8.16v3.34h7.87v2.55h-7.87v3.28h8.16V246.73z"/>
		<path class="st0" d="M446.14,234.69h-4.61v-2.49c4.2,0,7.75,0,11.96,0v2.49h-4.61v12.04h-2.74V234.69z"/>
		<path class="st0" d="M485.3,235.7c-0.5-0.83-1.87-1.62-3.45-1.62c-2.03,0-3.01,0.85-3.01,1.93c0,1.27,1.5,1.62,3.24,1.83
			c3.03,0.37,5.86,1.16,5.86,4.63c0,3.24-2.87,4.63-6.1,4.63c-2.97,0-5.25-0.91-6.33-3.57l2.28-1.18c0.64,1.6,2.33,2.3,4.09,2.3
			c1.72,0,3.34-0.6,3.34-2.18c0-1.37-1.43-1.93-3.36-2.14c-2.97-0.35-5.71-1.14-5.71-4.4c0-2.99,2.95-4.22,5.63-4.24
			c2.26,0,4.61,0.64,5.71,2.89L485.3,235.7z"/>
	</g>
	<g>
		<path class="st1" d="M297.9,145.02l-3.28,3.62c-1.61-0.79-3.33-1.4-5.04-1.97c-1.84-0.63-3.73-1.12-5.63-1.49
			c-3.69-0.7-7.48-0.88-11.21-0.55c-3.8,0.32-7.54,1.17-11.15,2.39c-1.7,0.58-3.39,1.24-5.04,1.98c-6.41,2.86-12.6,6.17-17.63,11.27
			c-7.16,7.28-7.78,15.37-1.65,23.54c5.09,6.79,11.92,11.56,19.2,15.6c6.68,3.71,13.68,6.85,20.54,10.25
			c0.15,0.07,0.29,0.14,0.43,0.22v6.33c-1.41-0.55-2.69-1.05-3.93-1.62c-13.3-6.04-26.05-12.93-36.4-23.5
			c-1.69-1.73-3.29-3.61-4.66-5.61c-7.1-10.31-6.25-20.22,2.68-29.04c8.97-8.86,20.03-13.6,32.31-15.74
			c3.78-0.66,7.62-0.91,11.45-0.72c3.92,0.19,7.76,0.9,11.55,1.92C293.06,142.6,295.53,143.7,297.9,145.02z"/>
		<path class="st1" d="M345.78,189.86h-5.58c-2.59-3.7-6.61-9.17-8.16-11c-1.71-2.04-3.52-4.01-5.41-5.9l2.46-4.09
			c2.15,2.12,4.2,4.32,6.14,6.61c2.08,2.45,8.46,11.21,10.24,13.89C345.58,189.53,345.68,189.69,345.78,189.86z"/>
	</g>
</g>
</svg>
